<svg xmlns="http://www.w3.org/2000/svg" viewBox="0 0 100 45" width="400" height="180">
    <defs>
        <linearGradient id="gradient-dark" x1="0" x2="0" y1="0" y2="1">
            <stop stop-color="#1F2241" offset="0"></stop>
            <stop stop-color="#7D59DF" offset="1"></stop>
        </linearGradient>
        <!-- gradient used for the the mask, overlaid on the stars, to progressively hide the shapes as they approach the bottom -->
        <linearGradient id="gradient-mask" x1="0" x2="0" y1="0" y2="1">
            <stop stop-color="#000" offset="0"></stop>
            <stop stop-color="#fff" offset="1"></stop>
        </linearGradient>
        <!-- rectangle used for the clip and the mask (the same for the light variant, but included for completion sake) -->
        <rect id="background-dark" x="0" y="0" width="90" height="40" rx="20"></rect>
        <clipPath id="clip-dark">
            <use href="#background-dark"></use>
        </clipPath>
        <mask id="mask-dark">
            <use fill="url(#gradient-mask)" href="#background-dark"></use>
        </mask>
        <radialGradient id="gradient-moon">
            <stop stop-color="#fdfdfd" offset="0.7"></stop>
            <stop stop-color="#e2e2e2" offset="1"></stop>
        </radialGradient>
        <radialGradient id="gradient-crater">
            <stop stop-color="#efefef" offset="0"></stop>
            <stop stop-color="#e5e5e5" offset="1"></stop>
        </radialGradient>

        <!-- pattern for the stars -->
        <pattern id="pattern-dark" width="0.2" height="1" viewBox="0 0 20 45">
            <path fill="#fff" d="M 2 5 l 1 1 l -1 1 l -1 -1 l 1 -1"></path>
            <path fill="#fff" d="M 10 16 l 1 1 l -1 1 l -1 -1 l 1 -1"></path>
            <path fill="#fff" d="M 16 27 l 1 1 l -1 1 l -1 -1 l 1 -1"></path>
        </pattern>
    </defs>
    <!-- background -->
    <g transform="translate(5 2.5)">
        <g clip-path="url(#clip-background)">
            <use fill="url(#gradient-dark)" href="#background-dark"></use>
            <!-- add a copy of the gradient on top of the patterned rectangle, and using the mask -->
            <rect transform="translate(-5 0) rotate(5)" fill="url(#pattern-dark)" x="0" y="0" width="100" height="45"></rect>
            <use mask="url(#mask-dark)" fill="url(#gradient-dark)" href="#background-dark"></use>
        </g>
    </g>
    <!-- moon -->
    <g transform="translate(77.5 22.5)">
        <circle fill="url(#gradient-moon)" cx="0" cy="0" r="21.5"></circle>
        <g transform="translate(-8 -7.5)">
            <ellipse transform="rotate(-30)" fill="url(#gradient-crater)" stroke="#e0e0e0" stroke-width="0.2" cx="0" cy="0" rx="4" ry="3"></ellipse>
        </g>
        <g transform="translate(11 5)">
            <ellipse fill="url(#gradient-crater)" stroke="#e0e0e0" stroke-width="0.2" cx="0" cy="0" rx="3.85" ry="4"></ellipse>
        </g>
        <g transform="translate(-6 12)">
            <ellipse transform="rotate(-10)" fill="url(#gradient-crater)" stroke="#e0e0e0" stroke-width="0.2" cx="0" cy="0" rx="2" ry="1.75"></ellipse>
        </g>
    </g>
</svg>