<svg xmlns='http://www.w3.org/2000/svg' viewBox="-50 -50 100 100" width="100" height="100">
    <g fill="hsl(0, 0%, 100%)">
        <circle cx="-35" cy="-25" r="3.5" />
        <circle cx="30" cy="-40" r="2" />
        <circle cx="-15" cy="35" r="2.5" />
        <circle cx="25" cy="10" r="2" />
        <rect transform="rotate(45)" x="-10" y="-10" width="20" height="20"/>
        <path d="M -20 0 a 12 12 0 0 1 -12 -12 12 12 0 0 1 -12 12 12 12 0 0 1 12 12 12 12 0 0 1 12 -12" />
        <path transform="rotate(90)" d="M -20 0 a 12 12 0 0 1 -12 -12 12 12 0 0 1 -12 12 12 12 0 0 1 12 12 12 12 0 0 1 12 -12" />
        <path transform="rotate(180)" d="M -20 0 a 12 12 0 0 1 -12 -12 12 12 0 0 1 -12 12 12 12 0 0 1 12 12 12 12 0 0 1 12 -12" />
        <path transform="rotate(270)" d="M -20 0 a 12 12 0 0 1 -12 -12 12 12 0 0 1 -12 12 12 12 0 0 1 12 12 12 12 0 0 1 12 -12" />
    </g>
    <g fill="none" stroke-width="2" stroke="hsl(0, 0%, 100%)">
        <path d="M -30 0 h 60 m -30 -30 v 60" />
        <path transform="rotate(45)" d="M -30 0 h 60 m -30 -30 v 60" />
    </g>
</svg>