<svg xmlns="http://www.w3.org/2000/svg" viewBox="0 0 100 100">
    <g transform="translate(50 50)">
        <g fill="#2D2D2D" stroke="#2D2D2D" stroke-width="10" stroke-linejoin="round" stroke-linecap="round">
            <path transform="translate(-20 -30) rotate(-20)" d="M 0 0 a 24 24 0 0 1 24 24 c -12 7 -36 7 -48 0 a 24 24 0 0 1 24 -24"></path>
            <path d="M -35 15 q 40 0 60 -26 a 8 8 0 0 1 16 0 q 0 10 -15 4 q -10 15 -15 30 q 5 0 6 6 q -2.5 2 -5 0 q -2.5 -1 -3 -5 q -20 0 -40 -2 q 0 8 -5 8 q 0 -8 5 -8 h -4 a 3.5 3.5 0 0 1 0 -7"></path>
            <circle cx="38" cy="-12" r="2" fill="hsl(0, 0%, 100%)" stroke="none"></circle>
        </g>
    </g>
</svg>