
<svg xmlns="http://www.w3.org/2000/svg" viewBox="0 0 805 805" width="800" height="800" fill="none" stroke="currentColor" stroke-width="5" stroke-linecap="square"><defs><path id="b" d="M0 0h100v100"/><path id="c" d="M100 0v100"/><path id="a" d="M0 0h100"/></defs><path d="M2.5 2.5v800h800"/><g class="grid"><g class="row"><use href="#a" class="cell" transform="translate(2.5 702.5)"/><use href="#cell-none" class="cell" transform="translate(102.5 702.5)"/><use href="#a" class="cell" transform="translate(202.5 702.5)"/><use href="#a" class="cell" transform="translate(302.5 702.5)"/><use href="#b" class="cell" transform="translate(402.5 702.5)"/><use href="#cell-none" class="cell" transform="translate(502.5 702.5)"/><use href="#a" class="cell" transform="translate(602.5 702.5)"/><use href="#b" class="cell" transform="translate(702.5 702.5)"/><g><use href="#c" class="cell" transform="translate(2.5 602.5)"/><use href="#cell-none" class="cell" transform="translate(102.5 602.5)"/><use href="#b" class="cell" transform="translate(202.5 602.5)"/><use href="#c" class="cell" transform="translate(302.5 602.5)"/><use href="#c" class="cell" transform="translate(402.5 602.5)"/><use href="#a" class="cell" transform="translate(502.5 602.5)"/><use href="#a" class="cell" transform="translate(602.5 602.5)"/><use href="#c" class="cell" transform="translate(702.5 602.5)"/></g><g><use href="#c" class="cell" transform="translate(2.5 502.5)"/><use href="#c" class="cell" transform="translate(102.5 502.5)"/><use href="#cell-none" class="cell" transform="translate(202.5 502.5)"/><use href="#b" class="cell" transform="translate(302.5 502.5)"/><use href="#cell-none" class="cell" transform="translate(402.5 502.5)"/><use href="#b" class="cell" transform="translate(502.5 502.5)"/><use href="#cell-none" class="cell" transform="translate(602.5 502.5)"/><use href="#b" class="cell" transform="translate(702.5 502.5)"/></g><g><use href="#c" class="cell" transform="translate(2.5 402.5)"/><use href="#c" class="cell" transform="translate(102.5 402.5)"/><use href="#c" class="cell" transform="translate(202.5 402.5)"/><use href="#cell-none" class="cell" transform="translate(302.5 402.5)"/><use href="#b" class="cell" transform="translate(402.5 402.5)"/><use href="#c" class="cell" transform="translate(502.5 402.5)"/><use href="#c" class="cell" transform="translate(602.5 402.5)"/><use href="#c" class="cell" transform="translate(702.5 402.5)"/></g><g><use href="#cell-none" class="cell" transform="translate(2.5 302.5)"/><use href="#b" class="cell" transform="translate(102.5 302.5)"/><use href="#cell-none" class="cell" transform="translate(202.5 302.5)"/><use href="#b" class="cell" transform="translate(302.5 302.5)"/><use href="#cell-none" class="cell" transform="translate(402.5 302.5)"/><use href="#b" class="cell" transform="translate(502.5 302.5)"/><use href="#cell-none" class="cell" transform="translate(602.5 302.5)"/><use href="#b" class="cell" transform="translate(702.5 302.5)"/></g><g><use href="#c" class="cell" transform="translate(2.5 202.5)"/><use href="#cell-none" class="cell" transform="translate(102.5 202.5)"/><use href="#a" class="cell" transform="translate(202.5 202.5)"/><use href="#a" class="cell" transform="translate(302.5 202.5)"/><use href="#b" class="cell" transform="translate(402.5 202.5)"/><use href="#a" class="cell" transform="translate(502.5 202.5)"/><use href="#cell-none" class="cell" transform="translate(602.5 202.5)"/><use href="#b" class="cell" transform="translate(702.5 202.5)"/></g><g><use href="#cell-none" class="cell" transform="translate(2.5 102.5)"/><use href="#a" class="cell" transform="translate(102.5 102.5)"/><use href="#b" class="cell" transform="translate(202.5 102.5)"/><use href="#c" class="cell" transform="translate(302.5 102.5)"/><use href="#c" class="cell" transform="translate(402.5 102.5)"/><use href="#c" class="cell" transform="translate(502.5 102.5)"/><use href="#cell-none" class="cell" transform="translate(602.5 102.5)"/><use href="#b" class="cell" transform="translate(702.5 102.5)"/></g><g><use href="#a" class="cell" transform="translate(2.5 2.5)"/><use href="#a" class="cell" transform="translate(102.5 2.5)"/><use href="#a" class="cell" transform="translate(202.5 2.5)"/><use href="#a" class="cell" transform="translate(302.5 2.5)"/><use href="#a" class="cell" transform="translate(402.5 2.5)"/><use href="#a" class="cell" transform="translate(502.5 2.5)"/><use href="#a" class="cell" transform="translate(602.5 2.5)"/><use href="#b" class="cell" transform="translate(702.5 2.5)"/></g></g><svg width="100" height="100" transform="translate(702.5 2.5)"><use href="#chicken"/></svg></g></svg>