<svg id="raspberry" version="1.1" viewBox="0 0 100 100" xmlns="http://www.w3.org/2000/svg">
 <g transform="translate(50 50)" fill="none" stroke="currentColor" stroke-linecap="round" stroke-linejoin="round" stroke-width="2">
  <g transform="translate(.10082 .49998)">
   <g>
    <path d="m-2 0q-5-25 18-18 3 25-18 18"/>
    <path d="m-2 0 15-15" stroke-dasharray="12, 4, 1, 10"/>
   </g>
   <g>
    <path d="m-15-10q-5-10 5-15 4 8 7 10 10 8 0 10" fill="#ffffff" stroke-dasharray="25, 5, 20"/>
    <path d="m-5-9q-2-4-4-5"/>
   </g>
   <g transform="matrix(.020627 -.99979 -.99979 -.020627 -.99002 -2.0879)">
    <path d="m-15-10q-5-10 5-15 4 8 7 10 10 8 0 10" fill="#ffffff" stroke-dasharray="25, 5, 20"/>
    <path d="m-5-9q-2-4-4-5"/>
   </g>
   <g fill="#ffffff">
    <circle cx="-20" cy="20" r="4"/>
    <circle cx="-19" cy="14" r="4.1"/>
    <circle cx="-14" cy="18" r="4.1"/>
    <circle cx="-18" cy="9" r="4.2"/>
    <circle cx="-9" cy="17" r="4.2"/>
    <circle cx="-14" cy="13" r="4.2"/>
    <circle cx="-17" cy="4" r="4.3"/>
    <circle cx="-4" cy="16" r="4.3"/>
    <circle cx="-9" cy="8" r="4.3"/>
    <circle cx="-16" cy="-1" r="4.4"/>
    <circle cx="1" cy="15" r="4.4"/>
    <circle cx="-5" cy="3" r="4.4"/>
    <circle cx="-11" cy="1" r="4.4"/>
    <circle cx="-1" cy="9" r="4.4"/>
    <circle cx="-14" cy="-9" r="4.5"/>
    <circle cx="-8" cy="-6" r="4.5"/>
    <circle cx="3" cy="5" r="4.5"/>
    <circle cx="8" cy="12" r="4.5"/>
    <circle cx="-1" cy="-1" r="4.5"/>
   </g>
  </g>
 </g>
</svg>
