<svg xmlns="http://www.w3.org/2000/svg" viewBox="0 0 60.4 86" width="60.4" height="86">
  <defs>
    <mask id="mask-petals">
      <rect width="100" height="100" fill="hsl(0, 0%, 100%)" />
      <circle cx="30.2" cy="26" r="11" fill="hsl(0, 0%, 0%)" />
    </mask>
  </defs>
  <g transform="translate(30.2 84)">
    <g transform="rotate(45)">
      <path d="M 0 0 c 20 -8 15 -32 0 -42 -15 10 -20 34 0 42" />
    </g>
    <g transform="scale(-1 1)">
      <g transform="rotate(45)">
        <path d="M 0 0 c 20 -8 15 -32 0 -42 -15 10 -20 34 0 42" />
      </g>
    </g>
  </g>
  <g mask="url(#mask-petals)">
    <g transform="translate(30.2 26)">
      <circle transform="translate(0 -15)" r="11" />
      <circle transform="rotate(72) translate(0 -15)" r="11" />
      <circle transform="rotate(144) translate(0 -15)" r="11" />
      <circle transform="rotate(216) translate(0 -15)" r="11" />
      <circle transform="rotate(288) translate(0 -15)" r="11" />
    </g>
  </g>
</svg>