<svg viewBox="0 0 21 16" width="210" height="160">
  <rect
      x="2"
      y="1"
      width="9"
      height="4"
      fill="#ABA071">
  </rect>
  <rect
      x="3"
      y="0"
      width="7"
      height="1">
  </rect>
  <rect
      x="2"
      y="1"
      width="1"
      height="1">
  </rect>
  <rect
      x="10"
      y="1"
      width="1"
      height="1">
  </rect>
  <rect
      x="1"
      y="2"
      width="1"
      height="1">
  </rect>
  <rect
      x="11"
      y="2"
      width="1"
      height="1">
  </rect>
  <rect
      x="1"
      y="3"
      width="1"
      height="1">
  </rect>
  <rect
      x="10"
      y="3"
      width="1"
      height="1"
      fill="#E8D8A7">
  </rect>
  <rect
      x="11"
      y="3"
      width="2"
      height="1">
  </rect>
  <rect
      x="0"
      y="4"
      width="3"
      height="1">
  </rect>
  <rect
      x="9"
      y="4"
      width="4"
      height="1"
      fill="#E8D8A7">
  </rect>
  <rect
      x="13"
      y="4"
      width="1"
      height="1">
  </rect>
  <rect
      x="0"
      y="5"
      width="7"
      height="1">
  </rect>
  <rect
      x="7"
      y="5"
      width="4"
      height="1"
      fill="#E8D8A7">
  </rect>
  <rect
      x="11"
      y="5"
      width="2"
      height="1">
  </rect>
  <rect
      x="19"
      y="5"
      width="2"
      height="1">
  </rect>
  <rect
      x="0"
      y="6"
      width="6"
      height="1">
  </rect>
  <rect
      x="6"
      y="6"
      width="5"
      height="1"
      fill="#E8D8A7">
  </rect>
  <rect
      x="9"
      y="6"
      width="1"
      height="1">
  </rect>
  <rect
      x="11"
      y="6"
      width="1"
      height="1">
  </rect>
  <rect
      x="17"
      y="6"
      width="2"
      height="1">
  </rect>
  <rect
      x="1"
      y="7"
      width="2"
      height="1">
  </rect>
  <rect
      x="3"
      y="7"
      width="8"
      height="1"
      fill="#E8D8A7">
  </rect>
  <rect
      x="5"
      y="7"
      width="1"
      height="1">
  </rect>
  <rect
      x="9"
      y="7"
      width="1"
      height="1">
  </rect>
  <rect
      x="11"
      y="7"
      width="1"
      height="1">
  </rect>
  <rect
      x="15"
      y="7"
      width="2"
      height="1">
  </rect>
  <rect
      x="2"
      y="8"
      width="1"
      height="1">
  </rect>
  <rect
      x="3"
      y="8"
      width="8"
      height="1"
      fill="#E8D8A7">
  </rect>
  <rect
      x="11"
      y="8"
      width="1"
      height="1">
  </rect>
  <rect
      x="13"
      y="8"
      width="2"
      height="1">
  </rect>
  <rect
      x="3"
      y="9"
      width="2"
      height="1">
  </rect>
  <rect
      x="5"
      y="9"
      width="5"
      height="1"
      fill="#E8D8A7">
  </rect>
  <rect
      x="10"
      y="9"
      width="3"
      height="1">
  </rect>
  <rect
      x="2"
      y="10"
      width="2"
      height="1">
  </rect>
  <rect
      x="4"
      y="10"
      width="2"
      height="1"
      fill="#ABA071">
  </rect>
  <rect
      x="6"
      y="10"
      width="7"
      height="1">
  </rect>
  <rect
      x="2"
      y="11"
      width="3"
      height="1">
  </rect>
  <rect
      x="5"
      y="11"
      width="3"
      height="1"
      fill="#ABA071">
  </rect>
  <rect
      x="8"
      y="11"
      width="1"
      height="1">
  </rect>
  <rect
      x="9"
      y="11"
      width="2"
      height="1"
      fill="#E8D8A7">
  </rect>
  <rect
      x="11"
      y="11"
      width="1"
      height="1">
  </rect>
  <rect
      x="2"
      y="12"
      width="1"
      height="1">
  </rect>
  <rect
      x="3"
      y="12"
      width="1"
      height="1"
      fill="#ABA071">
  </rect>
  <rect
      x="4"
      y="12"
      width="5"
      height="1">
  </rect>
  <rect
      x="9"
      y="12"
      width="2"
      height="1"
      fill="#E8D8A7">
  </rect>
  <rect
      x="11"
      y="12"
      width="1"
      height="1">
  </rect>
  <rect
      x="2"
      y="13"
      width="3"
      height="1">
  </rect>
  <rect
      x="5"
      y="13"
      width="2"
      height="1"
      fill="#ABA071">
  </rect>
  <rect
      x="7"
      y="13"
      width="4"
      height="1">
  </rect>
  <rect
      x="3"
      y="14"
      width="1"
      height="1">
  </rect>
  <rect
      x="4"
      y="14"
      width="4"
      height="1"
      fill="#ABA071">
  </rect>
  <rect
      x="8"
      y="14"
      width="1"
      height="1">
  </rect>
  <rect
      x="4"
      y="15"
      width="4"
      height="1">
  </rect>
</svg>