<svg xmlns="http://www.w3.org/2000/svg" viewBox="0 0 100 100" width="200" height="200">
  <defs>
    <!-- path elements used for the text -->
    <path
      id="path-spelling"
      d="M 11 50 a 39 39 0 0 1 78 0">
    </path>

    <path
      id="path-animation"
      d="M 11 50 a 39 39 0 0 0 78 0">
    </path>
  </defs>

  <circle
    class="background"
    cx="50"
    cy="50"
    r="48.75"
    stroke="#2A639F"
    stroke-width="2.5"
    fill="#F1F1F1">
  </circle>

  <!-- elements centered in the circle
  ! 51 as the graphic is asymmetric and inherently moves the eye of the reader upwards
   -->
  <g transform="translate(50 51)">
    <!-- stars positioned at either side of the circle -->
    <g class="stars stars--red">
      <path
        transform="translate(-38 0)"
        d="M -4.5 -2 h 3 l 1.5 -3 l 1.5 3 h 3 l -2.5 2.5 l 1.5 3 l -3.5 -1.5 l -3.5 1.5 l 1.5 -3"
        fill="#FF0001">
      </path>
      <path
        transform="translate(38 0)"
        d="M -4.5 -2 h 3 l 1.5 -3 l 1.5 3 h 3 l -2.5 2.5 l 1.5 3 l -3.5 -1.5 l -3.5 1.5 l 1.5 -3"
        fill="#FF0001">
      </path>
    </g>

    <!-- bee string, without text elements to tailor the individual letters -->
    <g class="text text-bee">
      <!-- for the letter b include two stars instead of the whitespace within the letter -->
      <g class="letter letter-b" transform="translate(-28 -12.5)">
        <path
            d="M 0 0 h 10 a 5.5 5.5 0 0 1 0 11 a 7 7 0 0 1 0 14 h -10"
            fill="#2A639F">
        </path>

        <g class="stars stars--white">
          <path
            transform="translate(7.5 7) scale(0.6)"
            d="M -4.5 -2 h 3 l 1.5 -3 l 1.5 3 h 3 l -2.5 2.5 l 1.5 3 l -3.5 -1.5 l -3.5 1.5 l 1.5 -3"
            fill="#FCFCFC">
          </path>

          <path
            transform="translate(7.5 18) scale(0.6)"
            d="M -4.5 -2 h 3 l 1.5 -3 l 1.5 3 h 3 l -2.5 2.5 l 1.5 3 l -3.5 -1.5 l -3.5 1.5 l 1.5 -3"
            fill="#FCFCFC">
          </path>
        </g>
      </g>

      <!-- add the second letter e before the first one, to position it behind -->
      <g class="letter letter-e" transform="translate(12 -12.5)">
        <path
            d="M 0 0 h 14 v 6 h -8 v 3.5 h 8 v 6 h -8 v 3.5 h 8 v 6 h -14"
            fill="#2A639F">
          </path>
      </g>

      <!-- draw a bee instead of the first letter b -->
      <g
        class=" letter letter-bee"
        fill="#080608">
        <g class="body" transform="translate(-7 -12.5)">
          <rect
            x="0"
            y="0"
            width="14"
            height="5">
          </rect>
          <rect
            x="0"
            y="5"
            width="14"
            height="5"
            fill="#FFD500">
          </rect>
          <rect
            x="0"
            y="10"
            width="14"
            height="5">
          </rect>
          <rect
            x="0"
            y="15"
            width="14"
            height="5"
            fill="#FFD500">
          </rect>
          <rect
            x="0"
            y="20"
            width="14"
            height="5">
          </rect>
        </g>

        <g class="eyes" transform="translate(0 -18)">
          <circle
            cx="-3.75"
            cy="0"
            r="3">
          </circle>
          <circle
            cx="3.75"
            cy="0"
            r="3">
          </circle>
        </g>

        <!-- for the antennas and wings copy the path element and apply a negative x-scale to create a mirrored version -->
        <g class="antennas" transform="translate(0 -22)">
          <path
            d="M -1 0 v -6 a 3.5 3.5 0 0 0 -7 0 a 2.5 2.5 0 0 0 5 0 a 1.5 1.5 0 0 0 -3 0 a 0.5 0.5 0 0 0 1 0"
            fill="none"
            stroke="#A9A9A9"
            stroke-width="0.5">
          </path>
          <path
            transform="scale(-1 1)"
            d="M -1 0 v -6 a 3.5 3.5 0 0 0 -7 0 a 2.5 2.5 0 0 0 5 0 a 1.5 1.5 0 0 0 -3 0 a 0.5 0.5 0 0 0 1 0"
            fill="none"
            stroke="#A9A9A9"
            stroke-width="0.5">
          </path>
        </g>
      </g>

      <g class="wings" transform="translate(0 -12.5)">
        <path
          transform="translate(-1 0)"
          d="M 0 0 l -15 17 q 18 2 15 -17"
          fill="#FFFFFF">
        </path>
        <path
          transform="translate(1 0) scale(-1 1)"
          d="M 0 0 l -15 17 q 18 2 15 -17"
          fill="#FFFFFF">
        </path>
      </g>
    </g>
  </g>

  <!-- include two strings using the defined path, stretching around the circle
  ! cross-browser issues with the startOffset property
  consider morphing the text to path elements
  -->
  <g
    class="text text-path"
    font-family="Playfair Display"
    font-size="0.55rem"
    text-anchor="middle"
    dominant-baseline="middle"
    style="text-transform:uppercase; letter-spacing: 0.25rem;">
    <text>
      <textPath
        startOffset="50%"
        href="#path-spelling">
        Spelling
      </textPath>
    </text>
    <text>
      <textPath
        startOffset="50%"
        href="#path-animation">
        Animation
      </textPath>
    </text>
  </g>
</svg>